<svg width="10" height="7" viewBox="0 0 10 7" fill="none" xmlns="http://www.w3.org/2000/svg">
<path d="M3.49998 5.2001L7.92498 0.775097C8.06248 0.637597 8.23748 0.568848 8.44998 0.568848C8.66248 0.568848 8.83747 0.637597 8.97497 0.775097C9.11247 0.912597 9.18123 1.0876 9.18123 1.3001C9.18123 1.5126 9.11247 1.6876 8.97497 1.8251L4.02498 6.7751C3.87498 6.9251 3.69998 7.0001 3.49998 7.0001C3.29998 7.0001 3.12498 6.9251 2.97498 6.7751L1.02498 4.8251C0.887475 4.6876 0.818726 4.5126 0.818726 4.3001C0.818726 4.0876 0.887475 3.9126 1.02498 3.7751C1.16248 3.6376 1.33748 3.56885 1.54998 3.56885C1.76248 3.56885 1.93748 3.6376 2.07498 3.7751L3.49998 5.2001Z" fill="#FF9B04"/>
</svg>
