<svg width="26" height="26" viewBox="0 0 26 26" fill="none" xmlns="http://www.w3.org/2000/svg">
<g clip-path="url(#clip0_54_5035)">
<path d="M24.888 4.7887H8.3536C7.95751 4.7887 7.72392 5.06799 7.82548 5.47932L10.2122 13.6907C10.263 13.904 10.4763 14.0614 10.7403 14.0614H22.5571C22.8212 14.0614 23.0345 13.904 23.0852 13.6907L25.4161 5.47932C25.5075 5.21018 25.3653 4.7887 24.888 4.7887ZM22.1864 12.9493H11.1618L10.6845 11.309H22.6638L22.1864 12.9493ZM22.9278 10.2426H10.3493L9.87704 8.60238H23.4052L22.9278 10.2426ZM23.72 7.49026H9.57235L9.09501 5.85003H24.2024L23.72 7.49026Z" fill="white" stroke="white" stroke-width="0.2"/>
<path d="M5.43867 1.23398C5.38789 0.969922 5.17461 0.8125 4.91055 0.8125H0.558594V1.87383H4.47891L8.08437 16.3922C8.13516 16.6563 8.34844 16.8137 8.6125 16.8137H22.6027V15.7016H9.03906L5.43867 1.23398Z" fill="white" stroke="white" stroke-width="0.2"/>
<path d="M20.9672 18.459H8.61719V19.5203H20.9672V18.459Z" fill="white" stroke="white" stroke-width="0.2"/>
<path d="M20.3275 20.9473C19.1596 20.9473 18.21 21.902 18.21 23.0648C18.21 24.2328 19.1646 25.1824 20.3275 25.1824C21.4904 25.1824 22.4451 24.2277 22.4451 23.0648C22.4502 21.902 21.4955 20.9473 20.3275 20.9473ZM20.3275 24.0754C19.7994 24.0754 19.3221 23.598 19.3221 23.0699C19.3221 22.5418 19.7436 22.0645 20.3275 22.0645C20.9115 22.0645 21.333 22.5418 21.333 23.0699C21.3381 23.598 20.8607 24.0754 20.3275 24.0754Z" fill="white" stroke="white" stroke-width="0.2"/>
<path d="M10.0492 20.9473C8.88125 20.9473 7.93164 21.902 7.93164 23.0648C7.93164 24.2328 8.88633 25.1824 10.0492 25.1824C11.2121 25.1824 12.1668 24.2277 12.1668 23.0648C12.1668 21.902 11.2121 20.9473 10.0492 20.9473ZM10.0492 24.0754C9.52109 24.0754 9.04375 23.598 9.04375 23.0699C9.04375 22.5418 9.46523 22.0645 10.0492 22.0645C10.5773 22.0645 11.0547 22.5418 11.0547 23.0699C11.0547 23.598 10.5773 24.0754 10.0492 24.0754Z" fill="white" stroke="white" stroke-width="0.2"/>
</g>
<defs>
<clipPath id="clip0_54_5035">
<rect width="26" height="26" fill="white"/>
</clipPath>
</defs>
</svg>
